<?xml version="1.0" encoding="UTF-8"?>
<svg xmlns="http://www.w3.org/2000/svg" xmlns:xlink="http://www.w3.org/1999/xlink" viewBox="0 0 96 96" width="96px" height="96px">
<g id="surface15153956">
<path style=" stroke:none;fill-rule:nonzero;fill:rgb(8.235294%,39.607844%,75.294119%);fill-opacity:1;" d="M 20 24 L 26 74 L 9.960938 57.960938 C 7.585938 55.585938 6.945312 51.96875 8.371094 48.921875 Z M 20 24 "/>
<path style=" stroke:none;fill-rule:nonzero;fill:rgb(25.882354%,64.705884%,96.078432%);fill-opacity:1;" d="M 54.636719 12.636719 C 52.949219 10.949219 50.65625 10 48.269531 10 C 46.78125 10 45.3125 10.371094 44 11.074219 L 20 24 L 20 64.6875 C 20 66.808594 20.84375 68.84375 22.34375 70.34375 L 26 74 L 70 74 L 70 64 L 84 42 Z M 54.636719 12.636719 "/>
<path style=" stroke:none;fill-rule:nonzero;fill:rgb(8.235294%,39.607844%,75.294119%);fill-opacity:1;" d="M 20 24 L 62.6875 24 C 64.808594 24 66.84375 24.84375 68.34375 26.34375 L 84 42 L 84 74 L 70 74 Z M 20 24 "/>
<path style=" stroke:none;fill-rule:nonzero;fill:rgb(52.156866%,79.607844%,97.254902%);fill-opacity:1;" d="M 70 74 L 26 74 L 38 86 L 70 86 Z M 70 74 "/>
<path style=" stroke:none;fill-rule:nonzero;fill:rgb(80.000001%,80.000001%,80.000001%);fill-opacity:1;" d="M 22.929688 74.261719 L 25.453125 74.261719 C 25.21875 76.277344 24.476562 77.832031 23.226562 78.925781 C 21.972656 80.019531 20.308594 80.566406 18.238281 80.566406 C 15.984375 80.566406 14.179688 79.761719 12.824219 78.144531 C 11.46875 76.535156 10.792969 74.375 10.792969 71.671875 L 10.792969 69.839844 C 10.792969 68.070312 11.109375 66.511719 11.742188 65.167969 C 12.371094 63.824219 13.269531 62.792969 14.425781 62.078125 C 15.585938 61.359375 16.929688 61 18.453125 61 C 20.480469 61 22.101562 61.5625 23.320312 62.691406 C 24.542969 63.820312 25.253906 65.382812 25.453125 67.378906 L 22.929688 67.378906 C 22.710938 65.863281 22.238281 64.765625 21.511719 64.085938 C 20.785156 63.40625 19.765625 63.0625 18.453125 63.0625 C 16.851562 63.0625 15.59375 63.65625 14.683594 64.84375 C 13.769531 66.027344 13.3125 67.714844 13.3125 69.90625 L 13.3125 71.75 C 13.3125 73.816406 13.746094 75.460938 14.609375 76.683594 C 15.472656 77.902344 16.683594 78.511719 18.238281 78.511719 C 19.632812 78.511719 20.703125 78.195312 21.445312 77.566406 C 22.191406 76.933594 22.6875 75.832031 22.929688 74.261719 Z M 40.484375 73.175781 L 40.484375 73.382812 C 40.484375 75.546875 39.988281 77.285156 38.996094 78.597656 C 38 79.910156 36.667969 80.566406 34.992188 80.566406 C 33.203125 80.566406 31.820312 79.933594 30.84375 78.667969 L 30.726562 80.304688 L 28.5 80.304688 L 28.5 60.210938 L 30.921875 60.210938 L 30.921875 67.707031 C 31.898438 66.496094 33.246094 65.886719 34.964844 65.886719 C 36.683594 65.886719 38.035156 66.539062 39.015625 67.835938 C 39.996094 69.136719 40.484375 70.917969 40.484375 73.175781 Z M 38.066406 73.109375 C 38.066406 71.460938 37.75 70.191406 37.113281 69.292969 C 36.472656 68.390625 35.554688 67.941406 34.363281 67.941406 C 32.765625 67.941406 31.621094 68.683594 30.921875 70.167969 L 30.921875 76.285156 C 31.664062 77.769531 32.820312 78.511719 34.390625 78.511719 C 35.550781 78.511719 36.453125 78.066406 37.097656 77.167969 C 37.746094 76.269531 38.066406 74.914062 38.066406 73.109375 Z M 44.488281 66.152344 L 48.019531 76.761719 L 51.316406 66.152344 L 53.90625 66.152344 L 48.214844 82.488281 C 47.335938 84.84375 45.9375 86.019531 44.019531 86.019531 L 43.558594 85.980469 L 42.65625 85.8125 L 42.65625 83.847656 L 43.308594 83.90625 C 44.132812 83.90625 44.769531 83.738281 45.230469 83.402344 C 45.6875 83.070312 46.0625 82.46875 46.363281 81.589844 L 46.898438 80.148438 L 41.847656 66.152344 Z M 56.925781 62.722656 L 59.351562 62.722656 L 59.351562 66.152344 L 61.988281 66.152344 L 61.988281 68.019531 L 59.351562 68.019531 L 59.351562 76.800781 C 59.351562 77.367188 59.46875 77.789062 59.703125 78.074219 C 59.9375 78.359375 60.335938 78.503906 60.90625 78.503906 C 61.1875 78.503906 61.570312 78.449219 62.058594 78.339844 L 62.058594 80.304688 C 61.421875 80.480469 60.800781 80.566406 60.199219 80.566406 C 59.117188 80.566406 58.304688 80.238281 57.753906 79.585938 C 57.203125 78.929688 56.925781 78 56.925781 76.800781 L 56.925781 68.019531 L 54.355469 68.019531 L 54.355469 66.152344 L 56.925781 66.152344 Z M 70.691406 80.566406 C 68.769531 80.566406 67.210938 79.9375 66.007812 78.675781 C 64.804688 77.417969 64.199219 75.730469 64.199219 73.617188 L 64.199219 73.175781 C 64.199219 71.769531 64.46875 70.515625 65.007812 69.414062 C 65.546875 68.3125 66.292969 67.449219 67.257812 66.824219 C 68.222656 66.199219 69.265625 65.886719 70.390625 65.886719 C 72.230469 65.886719 73.664062 66.496094 74.683594 67.707031 C 75.703125 68.921875 76.210938 70.65625 76.210938 72.914062 L 76.210938 73.921875 L 66.621094 73.921875 C 66.65625 75.316406 67.0625 76.441406 67.84375 77.300781 C 68.625 78.160156 69.617188 78.589844 70.820312 78.589844 C 71.675781 78.589844 72.398438 78.417969 72.992188 78.066406 C 73.585938 77.71875 74.105469 77.253906 74.546875 76.683594 L 76.027344 77.832031 C 74.839844 79.65625 73.0625 80.566406 70.691406 80.566406 Z M 70.390625 67.875 C 69.414062 67.875 68.59375 68.230469 67.929688 68.941406 C 67.265625 69.652344 66.855469 70.648438 66.699219 71.933594 L 73.789062 71.933594 L 73.789062 71.75 C 73.722656 70.519531 73.390625 69.570312 72.796875 68.890625 C 72.203125 68.214844 71.402344 67.875 70.390625 67.875 Z M 87.25 76.550781 C 87.25 75.898438 87.003906 75.390625 86.515625 75.023438 C 86.019531 74.664062 85.160156 74.351562 83.9375 74.09375 C 82.710938 73.828125 81.738281 73.515625 81.015625 73.148438 C 80.296875 72.785156 79.765625 72.351562 79.421875 71.84375 C 79.078125 71.335938 78.90625 70.734375 78.90625 70.035156 C 78.90625 68.875 79.394531 67.894531 80.375 67.09375 C 81.355469 66.289062 82.609375 65.886719 84.136719 65.886719 C 85.746094 65.886719 87.046875 66.304688 88.042969 67.132812 C 89.039062 67.960938 89.539062 69.019531 89.539062 70.308594 L 87.105469 70.308594 C 87.105469 69.648438 86.824219 69.074219 86.261719 68.59375 C 85.703125 68.117188 84.992188 67.875 84.136719 67.875 C 83.257812 67.875 82.570312 68.070312 82.070312 68.457031 C 81.574219 68.839844 81.324219 69.339844 81.324219 69.957031 C 81.324219 70.542969 81.554688 70.980469 82.019531 71.28125 C 82.484375 71.578125 83.316406 71.859375 84.523438 72.128906 C 85.730469 72.398438 86.710938 72.722656 87.464844 73.097656 C 88.210938 73.472656 88.765625 73.921875 89.125 74.449219 C 89.492188 74.980469 89.671875 75.621094 89.671875 76.382812 C 89.671875 77.648438 89.167969 78.660156 88.15625 79.421875 C 87.144531 80.1875 85.828125 80.566406 84.214844 80.566406 C 83.082031 80.566406 82.082031 80.367188 81.207031 79.964844 C 80.335938 79.5625 79.65625 79.003906 79.164062 78.285156 C 78.667969 77.566406 78.421875 76.789062 78.421875 75.953125 L 80.84375 75.953125 C 80.882812 76.761719 81.207031 77.40625 81.816406 77.878906 C 82.421875 78.351562 83.222656 78.589844 84.214844 78.589844 C 85.128906 78.589844 85.863281 78.40625 86.417969 78.035156 C 86.972656 77.664062 87.25 77.171875 87.25 76.550781 Z M 87.25 76.550781 "/>
</g>
</svg>
